<?xml version="1.0" encoding="UTF-8" standalone="no"?>
<!-- Created with Inkscape (http://www.inkscape.org/) -->

<svg
   width="128mm"
   height="128mm"
   viewBox="0 0 128 128"
   version="1.1"
   id="svg1"
   xml:space="preserve"
   inkscape:export-filename="favicon.png"
   inkscape:export-xdpi="101.6"
   inkscape:export-ydpi="101.6"
   inkscape:version="1.4.2 (ebf0e94, 2025-05-08)"
   sodipodi:docname="favicon.svg"
   xmlns:inkscape="http://www.inkscape.org/namespaces/inkscape"
   xmlns:sodipodi="http://sodipodi.sourceforge.net/DTD/sodipodi-0.dtd"
   xmlns:xlink="http://www.w3.org/1999/xlink"
   xmlns="http://www.w3.org/2000/svg"
   xmlns:svg="http://www.w3.org/2000/svg"><sodipodi:namedview
     id="namedview1"
     pagecolor="#ffffff"
     bordercolor="#000000"
     borderopacity="0.25"
     inkscape:showpageshadow="2"
     inkscape:pageopacity="0.0"
     inkscape:pagecheckerboard="0"
     inkscape:deskcolor="#d1d1d1"
     inkscape:document-units="mm"
     inkscape:zoom="1"
     inkscape:cx="417.5"
     inkscape:cy="306.5"
     inkscape:window-width="1854"
     inkscape:window-height="1011"
     inkscape:window-x="66"
     inkscape:window-y="32"
     inkscape:window-maximized="1"
     inkscape:current-layer="layer1" /><defs
     id="defs1"><inkscape:path-effect
       effect="bspline"
       id="path-effect3"
       is_visible="true"
       lpeversion="1.3"
       weight="33.333333"
       steps="2"
       helper_size="0"
       apply_no_weight="true"
       apply_with_weight="true"
       only_selected="false"
       uniform="false" /><linearGradient
       id="linearGradient1"
       inkscape:collect="always"><stop
         style="stop-color:#004922;stop-opacity:1;"
         offset="0.49727196"
         id="stop1" /><stop
         style="stop-color:#000000;stop-opacity:0;"
         offset="1"
         id="stop2" /></linearGradient><inkscape:path-effect
       effect="bspline"
       id="path-effect1"
       is_visible="true"
       lpeversion="1.3"
       weight="33.333333"
       steps="2"
       helper_size="0"
       apply_no_weight="true"
       apply_with_weight="true"
       only_selected="false"
       uniform="false" /><linearGradient
       inkscape:collect="always"
       xlink:href="#linearGradient1"
       id="linearGradient2"
       x1="74.281181"
       y1="145.2401"
       x2="69.678665"
       y2="13.441483"
       gradientUnits="userSpaceOnUse" /></defs><g
     inkscape:label="Layer 1"
     inkscape:groupmode="layer"
     id="layer1"
     transform="matrix(0.87561191,0,0,0.87561191,1.0159427,-3.889285)"><ellipse
       style="fill:#0c1c10;fill-opacity:1;stroke-width:16.1284;stroke-linecap:round;stroke-linejoin:round;stroke-opacity:0;paint-order:stroke fill markers"
       id="path2"
       cx="60.333393"
       cy="79.104637"
       rx="6.3277531"
       ry="3.7096791"
       transform="matrix(0.97929799,-0.20242392,0.0777792,0.99697061,0,0)" /><path
       style="fill:url(#linearGradient2);stroke-width:7.99999;stroke-linecap:round;stroke-linejoin:round;stroke-opacity:0;paint-order:stroke fill markers"
       d="M 6.1027397,94.253425 C 6.349315,85.993149 7.1506848,75.267123 15.411116,65.280729 c 8.26043,-9.986394 23.979293,-19.232784 44.229541,-25.243086 20.250248,-6.010302 45.030573,-8.784219 59.208693,-9.030771 14.17812,-0.246551 17.75339,2.034225 18.7705,4.80823 1.0171,2.774005 -0.52396,6.041061 -5.1165,10.232892 -4.59254,4.191831 -12.23623,9.308171 -22.13018,12.883533 -9.89396,3.575362 -22.037554,5.609568 -29.188261,6.626691 -7.150707,1.017123 -9.308196,1.017123 -7.736226,0.339028 1.57197,-0.678096 6.873233,-2.034232 15.041152,-5.08565 8.167919,-3.051417 19.201945,-7.797897 25.921145,-11.280795 6.7192,-3.482897 9.12327,-5.702035 9.15407,-6.965736 0.0308,-1.263702 -2.31163,-1.571916 -9.18503,-0.893816 -6.8734,0.678099 -18.277282,2.342449 -30.637004,6.595942 -12.359722,4.253493 -25.674525,11.095822 -34.335523,17.414373 -8.660999,6.31855 -12.667767,12.112954 -14.609547,18.616452 -1.94178,6.503498 -1.818494,13.715683 1.972675,18.154054 3.791169,4.43838 11.249924,6.10273 18.77055,5.51708 7.520625,-0.58564 15.102665,-3.4212 18.955405,-6.25685 3.85274,-2.835644 3.976025,-5.671205 3.821911,-7.150658 -0.154113,-1.479453 -0.585611,-1.602739 -2.342491,-1.248279 -1.756881,0.35446 -4.838958,1.186621 -7.790208,0.647228 -2.951249,-0.539393 -5.771349,-2.450281 -4.908318,-5.4863 0.863031,-3.036019 5.409084,-7.196813 10.934022,-9.816727 5.524937,-2.619914 12.028103,-3.698638 18.362134,-3.297945 6.334031,0.400693 12.498164,2.280753 15.133494,3.559888 2.63533,1.279134 1.74151,1.957203 -0.36983,3.714081 -2.11133,1.756878 -5.44003,4.592438 -7.874977,9.46237 -2.434947,4.869932 -3.976013,11.773902 -9.154184,18.123272 -5.178172,6.34938 -13.993063,12.14378 -24.534281,15.10269 -10.541218,2.9589 -22.808095,3.08219 -32.979409,0.73968 C 22.623124,123.71908 14.547945,118.91096 10.356161,113.60953 6.1643771,108.3081 5.8561644,102.5137 6.1027397,94.253425 Z"
       id="path1"
       inkscape:path-effect="#path-effect1"
       inkscape:original-d="M 5.5479452,96.719177 C 6.3493149,85.993149 7.1506849,75.267123 7.9520546,64.541095 23.671547,55.294336 39.390409,46.047945 55.109588,36.801369 c 24.781317,-2.774027 49.561642,-5.547945 74.342462,-8.321918 3.57542,2.280869 7.15069,4.561644 10.72603,6.842466 -1.54113,3.267189 -3.08219,6.534248 -4.62329,9.80137 -7.64398,5.116542 -15.28767,10.232877 -22.9315,15.349315 -12.14408,2.034286 -24.287674,4.068493 -36.431509,6.102739 -2.157579,0 -4.315068,0 -6.472602,0 5.301474,-1.35619 10.602737,-2.712328 15.904109,-4.068492 11.034466,-4.74667 22.068492,-9.49315 33.102742,-14.239727 2.40415,-2.219222 4.80822,-4.438356 7.21233,-6.657533 -2.34252,-0.308226 -4.68494,-0.61644 -7.0274,-0.924658 -11.40434,1.664417 -22.808222,3.328768 -34.21233,4.99315 -13.315336,6.842604 -26.630138,13.684933 -39.945206,20.527397 -4.00693,5.794636 -8.013698,11.58904 -12.020548,17.383561 0.123291,7.212475 0.246576,14.42466 0.369864,21.636991 7.459051,1.66441 14.917806,3.32876 22.376712,4.99315 7.582342,-2.83568 15.164382,-5.67124 22.746575,-8.50685 0.123291,-2.835674 0.246574,-5.671235 0.369861,-8.506851 -0.431514,-0.123291 -0.863012,-0.246576 -1.294519,-0.369864 -3.082254,0.832208 -6.164331,1.664369 -9.246577,2.496575 -2.820253,-1.910992 -5.640353,-3.82188 -8.460615,-5.732877 4.546324,-4.161041 9.092377,-8.321835 13.6387,-12.482875 6.503552,-1.078788 13.006718,-2.157512 19.510273,-3.236301 6.164507,1.880175 12.32864,3.760236 18.49315,5.640411 -0.89385,0.678095 -1.78767,1.356163 -2.68151,2.034245 -3.32883,2.835674 -6.65753,5.671232 -9.986297,8.506851 -1.541127,6.904246 -3.082192,13.808216 -4.62329,20.712326 -8.815244,5.79464 -17.630137,11.58904 -26.445204,17.38356 C 55.23263,128.28082 42.965753,128.40411 30.69863,128.5274 22.623126,123.71908 14.547945,118.91096 6.4726025,114.10274 6.1643773,108.3081 5.8561644,102.5137 5.5479452,96.719177 Z"
       sodipodi:nodetypes="ccccccccccccccccccccccccccccccccc"
       transform="matrix(1.0574464,0,0,1.0574464,-2.3156804,-3.0988401)" /></g></svg>
