<?xml version="1.0" encoding="UTF-8" standalone="no"?>
<!-- Created with Inkscape (http://www.inkscape.org/) -->

<svg
        width="128mm"
        height="128mm"
        viewBox="0 0 128 128"
        version="1.1"
        id="gulfer"
        xml:space="preserve"
        xmlns:xlink="http://www.w3.org/1999/xlink"
        xmlns="http://www.w3.org/2000/svg">
    <defs id="defs1">
        <linearGradient id="linearGradient1">
            <stop
                style="stop-color:#004922;stop-opacity:1;"
                offset="0.49727196"
                id="stop1" />
            <stop
                style="stop-color:#000000;stop-opacity:0;"
                offset="1"
                id="stop2" />
        </linearGradient>
        <linearGradient
                xlink:href="#linearGradient1"
                id="linearGradient2"
                x1="74.281181"
                y1="145.2401"
                x2="69.678665"
                y2="13.441483"
                gradientUnits="userSpaceOnUse" />
    </defs>
    <g id="layer1" transform="matrix(0.87561191,0,0,0.87561191,1.0159427,-3.889285)">
        <ellipse
           style="fill:#0c1c10;fill-opacity:1;stroke-width:16.1284;stroke-linecap:round;stroke-linejoin:round;stroke-opacity:0;paint-order:stroke fill markers"
           id="path2"
           cx="60.333393"
           cy="79.104637"
           rx="6.3277531"
           ry="3.7096791"
           transform="matrix(0.97929799,-0.20242392,0.0777792,0.99697061,0,0)" />
        <path
            style="fill:url(#linearGradient2);stroke-width:7.99999;stroke-linecap:round;stroke-linejoin:round;stroke-opacity:0;paint-order:stroke fill markers"
            d="M 6.1027397,94.253425 C 6.349315,85.993149 7.1506848,75.267123 15.411116,65.280729 c 8.26043,-9.986394 23.979293,-19.232784 44.229541,-25.243086 20.250248,-6.010302 45.030573,-8.784219 59.208693,-9.030771 14.17812,-0.246551 17.75339,2.034225 18.7705,4.80823 1.0171,2.774005 -0.52396,6.041061 -5.1165,10.232892 -4.59254,4.191831 -12.23623,9.308171 -22.13018,12.883533 -9.89396,3.575362 -22.037554,5.609568 -29.188261,6.626691 -7.150707,1.017123 -9.308196,1.017123 -7.736226,0.339028 1.57197,-0.678096 6.873233,-2.034232 15.041152,-5.08565 8.167919,-3.051417 19.201945,-7.797897 25.921145,-11.280795 6.7192,-3.482897 9.12327,-5.702035 9.15407,-6.965736 0.0308,-1.263702 -2.31163,-1.571916 -9.18503,-0.893816 -6.8734,0.678099 -18.277282,2.342449 -30.637004,6.595942 -12.359722,4.253493 -25.674525,11.095822 -34.335523,17.414373 -8.660999,6.31855 -12.667767,12.112954 -14.609547,18.616452 -1.94178,6.503498 -1.818494,13.715683 1.972675,18.154054 3.791169,4.43838 11.249924,6.10273 18.77055,5.51708 7.520625,-0.58564 15.102665,-3.4212 18.955405,-6.25685 3.85274,-2.835644 3.976025,-5.671205 3.821911,-7.150658 -0.154113,-1.479453 -0.585611,-1.602739 -2.342491,-1.248279 -1.756881,0.35446 -4.838958,1.186621 -7.790208,0.647228 -2.951249,-0.539393 -5.771349,-2.450281 -4.908318,-5.4863 0.863031,-3.036019 5.409084,-7.196813 10.934022,-9.816727 5.524937,-2.619914 12.028103,-3.698638 18.362134,-3.297945 6.334031,0.400693 12.498164,2.280753 15.133494,3.559888 2.63533,1.279134 1.74151,1.957203 -0.36983,3.714081 -2.11133,1.756878 -5.44003,4.592438 -7.874977,9.46237 -2.434947,4.869932 -3.976013,11.773902 -9.154184,18.123272 -5.178172,6.34938 -13.993063,12.14378 -24.534281,15.10269 -10.541218,2.9589 -22.808095,3.08219 -32.979409,0.73968 C 22.623124,123.71908 14.547945,118.91096 10.356161,113.60953 6.1643771,108.3081 5.8561644,102.5137 6.1027397,94.253425 Z"
            id="path1"
            transform="matrix(1.0574464,0,0,1.0574464,-2.3156804,-3.0988401)" />
    </g>
</svg>
